<svg xmlns="http://www.w3.org/2000/svg" viewBox="0 0 600 760"><style>@keyframes second{from{transform:rotate(0deg)}to{transform:rotate(360deg)}}@keyframes minute{from{transform:rotate(0deg)}to{transform:rotate(360deg)}}@keyframes hour{from{transform:rotate(0deg)}to{transform:rotate(360deg)}}@keyframes shine{0%{opacity:.02;transform:translateX(-280px)}50%{opacity:.30}100%{opacity:.02;transform:translateX(280px)}}@keyframes glow{0%,100%{opacity:.45}50%{opacity:1}}.second{transform-box:fill-box;transform-origin:50% 100%;animation:second 8s linear infinite;}.minute{transform-box:fill-box;transform-origin:50% 100%;animation:minute 60s linear infinite;}.hour{transform-box:fill-box;transform-origin:50% 100%;animation:hour 720s linear infinite;}.shine{animation:shine 6s ease-in-out infinite;}.glow{animation:glow 3s ease-in-out infinite;}</style><rect width="600" height="760" fill="#102A43"/><path d="M0 150 L600 0" stroke="#FFFFFF" stroke-width="2" opacity=".06"/><path d="M0 300 L600 150" stroke="#FFFFFF" stroke-width="2" opacity=".06"/><path d="M0 450 L600 300" stroke="#FFFFFF" stroke-width="2" opacity=".06"/><path d="M0 600 L600 450" stroke="#FFFFFF" stroke-width="2" opacity=".06"/><ellipse cx="300" cy="650" rx="190" ry="32" fill="#000000" opacity=".30"/><rect x="215" y="25" width="170" height="165" rx="42" fill="#D81B60" stroke="#FFFFFF" stroke-width="5" stroke-opacity=".45"/><rect x="215" y="525" width="170" height="165" rx="42" fill="#D81B60" stroke="#FFFFFF" stroke-width="5" stroke-opacity=".45"/><path d="M230 65 L370 65" stroke="#FFFFFF" stroke-width="4" opacity=".30"/><path d="M230 650 L370 650" stroke="#FFFFFF" stroke-width="4" opacity=".30"/><rect x="92" y="152" width="416" height="416" rx="105" fill="#050505" stroke="#000000" stroke-width="18"/><rect x="105" y="165" width="390" height="390" rx="92" fill="#D7D7D7" stroke="#EEEEEE" stroke-width="4"/><circle cx="300" cy="360" r="176" fill="#101010" stroke="#777777" stroke-width="5"/><circle cx="300" cy="360" r="164" fill="#512078" stroke="#222222" stroke-width="5"/><circle cx="300" cy="360" r="145" fill="none" stroke="#FFFFFF" stroke-width="2" opacity=".10"/><circle cx="300" cy="360" r="132" fill="none" stroke="#FFFFFF" stroke-width="1" opacity=".10"/><circle cx="300" cy="360" r="105" fill="none" stroke="#FFD54F" stroke-width="1" opacity=".22"/><rect x="365" y="350" width="42" height="24" rx="4" fill="#111111" stroke="#FFD54F" stroke-width="2"/><text x="386" y="368" text-anchor="middle" font-family="sans-serif" font-size="12" fill="#FFFFFF">24</text><circle cx="300" cy="425" r="34" fill="#080808" stroke="#FFD54F" stroke-width="2"/><circle cx="300" cy="425" r="24" fill="none" stroke="#FFFFFF" stroke-width="1" opacity=".22"/><g fill="#FFD54F"><rect x="294" y="207" width="12" height="28" rx="3"/><rect x="294" y="485" width="12" height="28" rx="3"/><rect x="150" y="354" width="28" height="12" rx="3"/><rect x="422" y="354" width="28" height="12" rx="3"/><circle cx="235" cy="220" r="5"/><circle cx="365" cy="220" r="5"/><circle cx="235" cy="500" r="5"/><circle cx="365" cy="500" r="5"/></g><g fill="#FFFFFF" opacity=".85"><circle cx="194" cy="270" r="4"/><circle cx="406" cy="270" r="4"/><circle cx="194" cy="450" r="4"/><circle cx="406" cy="450" r="4"/></g><text x="300" y="300" text-anchor="middle" font-family="Georgia,serif" font-size="24" letter-spacing="5" font-weight="bold" fill="#E8D08A">WATCH</text><text x="300" y="322" text-anchor="middle" font-family="sans-serif" font-size="8" letter-spacing="3" fill="#FFFFFF" opacity=".75">AUTOMATIC</text><g class="hour"><rect x="294" y="280" width="12" height="80" rx="6" fill="#FFD54F"/></g><g class="minute"><rect x="296" y="235" width="8" height="125" rx="4" fill="#FFFFFF"/></g><g class="second"><rect x="298" y="215" width="4" height="145" rx="2" fill="#FF1744"/><circle cx="300" cy="215" r="4" fill="#FF1744"/></g><circle cx="300" cy="360" r="14" fill="#FFD54F" stroke="#FFFFFF" stroke-width="3"/><circle cx="300" cy="360" r="5" fill="#111111"/><rect x="486" y="330" width="35" height="60" rx="12" fill="#D7D7D7" stroke="#FFFFFF" stroke-width="3" stroke-opacity=".65"/><line x1="493" y1="340" x2="514" y2="340" stroke="#FFFFFF" stroke-width="2" opacity=".50"/><line x1="493" y1="352" x2="514" y2="352" stroke="#FFFFFF" stroke-width="2" opacity=".50"/><line x1="493" y1="364" x2="514" y2="364" stroke="#FFFFFF" stroke-width="2" opacity=".50"/><line x1="493" y1="376" x2="514" y2="376" stroke="#FFFFFF" stroke-width="2" opacity=".50"/><path d="M170 235 Q250 170 350 195 L390 245 Q285 215 170 300 Z" fill="#FFFFFF" opacity=".09" class="shine"/><circle cx="300" cy="360" r="183" fill="none" stroke="#FFFFFF" stroke-width="3" opacity=".22" class="glow"/><text x="300" y="720" text-anchor="middle" font-family="Georgia,serif" font-size="17" font-weight="bold" letter-spacing="3" fill="#E8D08A">WATCH #4</text></svg>